<svg xmlns="http://www.w3.org/2000/svg" width="36" height="36" viewBox="0 0 36 36" role="img" aria-labelledby="br-rn-title br-rn-desc">
<title id="br-rn-title">Rio Grande do Norte state flag</title>
<desc id="br-rn-desc">Stylized Brazilian federative-unit flag. Crest retains shield, coconut and carnauba palms, cane, cotton and sailing raft; inscriptions omitted.</desc>
<defs><clipPath id="br-rn-clip"><rect y="5" width="36" height="26" rx="4"/></clipPath></defs>
<g clip-path="url(#br-rn-clip)"><rect x="0" y="5" width="36" height="13.015" fill="#269B59"/><rect x="0" y="18" width="36" height="13.015" fill="#FFFFFF"/><path d="M12.8 12.5H23.2V23.8Q18 27 12.8 23.8Z" fill="#FFCC33"/><path d="M13.7 23Q13.399999999999999 19.5 13.7 16" fill="none" stroke="#836340" stroke-width="0.35" stroke-linecap="round" stroke-linejoin="round"/><path d="M13.7 16Q9.5 17.35 9.5 17.75" fill="none" stroke="#269B59" stroke-width="0.4" stroke-linecap="round" stroke-linejoin="round"/><path d="M13.7 16Q10.2 15.6 10.2 16.0" fill="none" stroke="#269B59" stroke-width="0.4" stroke-linecap="round" stroke-linejoin="round"/><path d="M13.7 16Q11.6 14.2 11.6 14.6" fill="none" stroke="#269B59" stroke-width="0.4" stroke-linecap="round" stroke-linejoin="round"/><path d="M13.7 16Q15.799999999999999 14.2 15.799999999999999 14.6" fill="none" stroke="#269B59" stroke-width="0.4" stroke-linecap="round" stroke-linejoin="round"/><path d="M13.7 16Q17.2 15.6 17.2 16.0" fill="none" stroke="#269B59" stroke-width="0.4" stroke-linecap="round" stroke-linejoin="round"/><path d="M13.7 16Q17.9 17.35 17.9 17.75" fill="none" stroke="#269B59" stroke-width="0.4" stroke-linecap="round" stroke-linejoin="round"/><path d="M22.3 23Q22.0 19.5 22.3 16" fill="none" stroke="#836340" stroke-width="0.35" stroke-linecap="round" stroke-linejoin="round"/><path d="M22.3 16Q18.1 17.35 18.1 17.75" fill="none" stroke="#269B59" stroke-width="0.4" stroke-linecap="round" stroke-linejoin="round"/><path d="M22.3 16Q18.8 15.6 18.8 16.0" fill="none" stroke="#269B59" stroke-width="0.4" stroke-linecap="round" stroke-linejoin="round"/><path d="M22.3 16Q20.2 14.2 20.2 14.6" fill="none" stroke="#269B59" stroke-width="0.4" stroke-linecap="round" stroke-linejoin="round"/><path d="M22.3 16Q24.400000000000002 14.2 24.400000000000002 14.6" fill="none" stroke="#269B59" stroke-width="0.4" stroke-linecap="round" stroke-linejoin="round"/><path d="M22.3 16Q25.8 15.6 25.8 16.0" fill="none" stroke="#269B59" stroke-width="0.4" stroke-linecap="round" stroke-linejoin="round"/><path d="M22.3 16Q26.5 17.35 26.5 17.75" fill="none" stroke="#269B59" stroke-width="0.4" stroke-linecap="round" stroke-linejoin="round"/><polygon points="18,12.4 18.247,13.06 18.951,13.091 18.399,13.53 18.588,14.209 18,13.82 17.412,14.209 17.601,13.53 17.049,13.091 17.753,13.06" fill="#292F33"/><polygon points="18,12.6 18.197,13.128 18.761,13.153 18.32,13.504 18.47,14.047 18,13.736 17.53,14.047 17.68,13.504 17.239,13.153 17.803,13.128" fill="#FFFFFF"/><path d="M14.8 15H21.2V22Q18 24.7 14.8 22Z" fill="#2455A4"/><rect x="14.8" y="15" width="6.4" height="2.4" fill="#269B59"/><path d="M15.7 15.4V17M16.4 15.4V17" fill="none" stroke="#FFCC33" stroke-width="0.3" stroke-linecap="round" stroke-linejoin="round"/><circle cx="19" cy="16.1" r="0.35" fill="#FFFFFF"/><circle cx="19.7" cy="16.1" r="0.35" fill="#FFFFFF"/><circle cx="20.4" cy="16.1" r="0.35" fill="#FFFFFF"/><path d="M15 21Q16 20.5 17 21T19 21T21 21L20.5 22.6L18 24L15 22Z" fill="#269B59"/><polygon points="17.9,17.8 17.9,21.2 20,21.2" fill="#FFFFFF"/><path d="M16.5 21.5H20.5L19.8 22H17Z" fill="#FFCC33"/><path d="M14 24Q18 25 22 24L22 25Q18 26 14 25Z" fill="#269B59"/></g>
</svg>
