<svg xmlns="http://www.w3.org/2000/svg" width="36" height="36" viewBox="0 0 36 36" role="img" aria-labelledby="br-rs-title br-rs-desc">
<title id="br-rs-title">Rio Grande do Sul state flag</title>
<desc id="br-rs-desc">Stylized Brazilian federative-unit flag. Crest retains white oval, flags, shield, liberty cap, wreath and ribbon; inscriptions omitted.</desc>
<defs><clipPath id="br-rs-clip"><rect y="5" width="36" height="26" rx="4"/></clipPath></defs>
<g clip-path="url(#br-rs-clip)"><rect x="0" y="5" width="36" height="26" fill="#E5323E"/><polygon points="0,5 36,5 0,18" fill="#269B59"/><polygon points="0,31 36,18 36,31" fill="#FFCC33"/><ellipse cx="18" cy="18" rx="5" ry="6.1" fill="#FFFFFF"/><path d="M18 23L15 13" fill="none" stroke="#FFCC33" stroke-width="0.35" stroke-linecap="round" stroke-linejoin="round"/><polygon points="15,13 13.4,14.5 15,16" fill="#269B59"/><path d="M18 23L14.6 13" fill="none" stroke="#FFCC33" stroke-width="0.35" stroke-linecap="round" stroke-linejoin="round"/><polygon points="14.6,13 13,14.5 14.6,16" fill="#E5323E"/><path d="M18 23L14.2 13" fill="none" stroke="#FFCC33" stroke-width="0.35" stroke-linecap="round" stroke-linejoin="round"/><polygon points="14.2,13 12.6,14.5 14.2,16" fill="#269B59"/><path d="M18 23L21 13" fill="none" stroke="#FFCC33" stroke-width="0.35" stroke-linecap="round" stroke-linejoin="round"/><polygon points="21,13 22.6,14.5 21,16" fill="#269B59"/><path d="M18 23L21.4 13" fill="none" stroke="#FFCC33" stroke-width="0.35" stroke-linecap="round" stroke-linejoin="round"/><polygon points="21.4,13 23,14.5 21.4,16" fill="#E5323E"/><path d="M18 23L21.8 13" fill="none" stroke="#FFCC33" stroke-width="0.35" stroke-linecap="round" stroke-linejoin="round"/><polygon points="21.8,13 23.4,14.5 21.8,16" fill="#269B59"/><path d="M18 23.2 Q13.68 22.08 15.6 17.28" fill="none" stroke="#269B59" stroke-width="0.38" stroke-linecap="round" stroke-linejoin="round"/><g transform="rotate(-30 16.464 22.624)"><ellipse cx="16.464" cy="22.624" rx="0.448" ry="0.864" fill="#269B59"/></g><g transform="rotate(-38 16.013 21.664)"><ellipse cx="16.013" cy="21.664" rx="0.448" ry="0.864" fill="#269B59"/></g><g transform="rotate(-46 15.599 20.704)"><ellipse cx="15.599" cy="20.704" rx="0.448" ry="0.864" fill="#269B59"/></g><g transform="rotate(-54 15.255 19.744)"><ellipse cx="15.255" cy="19.744" rx="0.448" ry="0.864" fill="#269B59"/></g><g transform="rotate(-62 15.009 18.784)"><ellipse cx="15.009" cy="18.784" rx="0.448" ry="0.864" fill="#269B59"/></g><g transform="rotate(-70 14.88 17.824)"><ellipse cx="14.88" cy="17.824" rx="0.448" ry="0.864" fill="#269B59"/></g><path d="M18 23.2 Q22.32 22.08 20.4 17.28" fill="none" stroke="#269B59" stroke-width="0.38" stroke-linecap="round" stroke-linejoin="round"/><g transform="rotate(30 19.536 22.624)"><ellipse cx="19.536" cy="22.624" rx="0.448" ry="0.864" fill="#269B59"/></g><g transform="rotate(38 19.987 21.664)"><ellipse cx="19.987" cy="21.664" rx="0.448" ry="0.864" fill="#269B59"/></g><g transform="rotate(46 20.401 20.704)"><ellipse cx="20.401" cy="20.704" rx="0.448" ry="0.864" fill="#269B59"/></g><g transform="rotate(54 20.745 19.744)"><ellipse cx="20.745" cy="19.744" rx="0.448" ry="0.864" fill="#269B59"/></g><g transform="rotate(62 20.991 18.784)"><ellipse cx="20.991" cy="18.784" rx="0.448" ry="0.864" fill="#269B59"/></g><g transform="rotate(70 21.12 17.824)"><ellipse cx="21.12" cy="17.824" rx="0.448" ry="0.864" fill="#269B59"/></g><ellipse cx="18" cy="17.8" rx="2.6" ry="3.7" fill="#FFCC33"/><ellipse cx="18" cy="17.8" rx="2.05" ry="3.15" fill="#FFFFFF"/><rect x="16.9" y="17" width="2.2" height="2.4" fill="#55ACEE"/><rect x="17.7" y="17.7" width="0.6" height="2.4" fill="#292F33"/><polygon points="16.8,17 18,15.8 19.2,17" fill="#E5323E"/><path d="M14.2 23.4Q18 24.4 21.8 23.4L21.3 24.4Q18 25.2 14.7 24.4Z" fill="#FFCC33"/></g>
</svg>
