<svg xmlns="http://www.w3.org/2000/svg" width="36" height="36" viewBox="0 0 36 36" role="img" aria-labelledby="br-rj-title br-rj-desc">
<title id="br-rj-title">Rio de Janeiro state flag</title>
<desc id="br-rj-desc">Stylized Brazilian federative-unit flag. Crest retains silver star, vegetation, landscape, eagle, medallion and blue ribbon; inscriptions omitted.</desc>
<defs><clipPath id="br-rj-clip"><rect y="5" width="36" height="26" rx="4"/></clipPath></defs>
<g clip-path="url(#br-rj-clip)"><rect x="0" y="5" width="36" height="26" fill="#FFFFFF"/><rect x="18" y="5" width="18" height="13" fill="#55ACEE"/><rect x="0" y="18" width="18" height="13" fill="#55ACEE"/><path d="M18 23.5 Q11.25 21.75 14.25 14.25" fill="none" stroke="#628C4C" stroke-width="0.38" stroke-linecap="round" stroke-linejoin="round"/><g transform="rotate(-30 15.6 22.6)"><ellipse cx="15.6" cy="22.6" rx="0.7" ry="1.35" fill="#628C4C"/></g><g transform="rotate(-38 14.896 21.1)"><ellipse cx="14.896" cy="21.1" rx="0.7" ry="1.35" fill="#628C4C"/></g><g transform="rotate(-46 14.248 19.6)"><ellipse cx="14.248" cy="19.6" rx="0.7" ry="1.35" fill="#628C4C"/></g><g transform="rotate(-54 13.711 18.1)"><ellipse cx="13.711" cy="18.1" rx="0.7" ry="1.35" fill="#628C4C"/></g><g transform="rotate(-62 13.326 16.6)"><ellipse cx="13.326" cy="16.6" rx="0.7" ry="1.35" fill="#628C4C"/></g><g transform="rotate(-70 13.125 15.1)"><ellipse cx="13.125" cy="15.1" rx="0.7" ry="1.35" fill="#628C4C"/></g><path d="M18 23.5 Q24.75 21.75 21.75 14.25" fill="none" stroke="#628C4C" stroke-width="0.38" stroke-linecap="round" stroke-linejoin="round"/><g transform="rotate(30 20.4 22.6)"><ellipse cx="20.4" cy="22.6" rx="0.7" ry="1.35" fill="#628C4C"/></g><g transform="rotate(38 21.104 21.1)"><ellipse cx="21.104" cy="21.1" rx="0.7" ry="1.35" fill="#628C4C"/></g><g transform="rotate(46 21.752 19.6)"><ellipse cx="21.752" cy="19.6" rx="0.7" ry="1.35" fill="#628C4C"/></g><g transform="rotate(54 22.289 18.1)"><ellipse cx="22.289" cy="18.1" rx="0.7" ry="1.35" fill="#628C4C"/></g><g transform="rotate(62 22.674 16.6)"><ellipse cx="22.674" cy="16.6" rx="0.7" ry="1.35" fill="#628C4C"/></g><g transform="rotate(70 22.875 15.1)"><ellipse cx="22.875" cy="15.1" rx="0.7" ry="1.35" fill="#628C4C"/></g><polygon points="18,9.7 18.296,10.492 19.141,10.529 18.479,11.056 18.705,11.871 18,11.404 17.295,11.871 17.521,11.056 16.859,10.529 17.704,10.492" fill="#292F33"/><polygon points="18,9.9 18.247,10.56 18.951,10.591 18.399,11.03 18.588,11.709 18,11.32 17.412,11.709 17.601,11.03 17.049,10.591 17.753,10.56" fill="#FFFFFF"/><ellipse cx="18" cy="18.2" rx="3.9" ry="6" fill="#FFCC33"/><ellipse cx="18" cy="18.2" rx="3.4" ry="5.5" fill="#55ACEE"/><polygon points="15.1,18.2 16.5,16.5 17.3,17.4 19,14.9 20.6,18.2" fill="#292F33"/><polygon points="15.1,19.2 17,18.1 20.8,18.8 20.5,20.3 15.5,20.3" fill="#269B59"/><path d="M15.3 20.4Q16.6 19.8 18 20.4T20.7 20.4" fill="none" stroke="#FFFFFF" stroke-width="0.4" stroke-linecap="round" stroke-linejoin="round"/><path d="M18 20L16 21L14.3 19.8L15.2 22L17 23L18 24L19 23L20.8 22L21.7 19.8L20 21Z" fill="#836340"/><circle cx="18" cy="22" r="1.4" fill="#FFFFFF"/><circle cx="18" cy="22" r="1" fill="#2455A4"/><rect x="17.2" y="21.8" width="1.6" height="0.35" fill="#FFFFFF"/><rect x="17.4" y="22.4" width="1.2" height="0.25" fill="#FFFFFF"/><path d="M13 25Q18 27 23 25L22.4 26.5Q18 28 13.6 26.5Z" fill="#2455A4"/></g>
</svg>
