<svg xmlns="http://www.w3.org/2000/svg" width="36" height="36" viewBox="0 0 36 36" role="img" aria-labelledby="br-sp-title br-sp-desc">
<title id="br-sp-title">São Paulo state flag</title>
<desc id="br-sp-desc">Stylized Brazilian federative-unit flag. Brazil map hand-redrawn as an approximate silhouette; four canton stars retained.</desc>
<defs><clipPath id="br-sp-clip"><rect y="5" width="36" height="26" rx="4"/></clipPath></defs>
<g clip-path="url(#br-sp-clip)"><rect x="0" y="5" width="36" height="2.015" fill="#292F33"/><rect x="0" y="7" width="36" height="2.015" fill="#FFFFFF"/><rect x="0" y="9" width="36" height="2.015" fill="#292F33"/><rect x="0" y="11" width="36" height="2.015" fill="#FFFFFF"/><rect x="0" y="13" width="36" height="2.015" fill="#292F33"/><rect x="0" y="15" width="36" height="2.015" fill="#FFFFFF"/><rect x="0" y="17" width="36" height="2.015" fill="#292F33"/><rect x="0" y="19" width="36" height="2.015" fill="#FFFFFF"/><rect x="0" y="21" width="36" height="2.015" fill="#292F33"/><rect x="0" y="23" width="36" height="2.015" fill="#FFFFFF"/><rect x="0" y="25" width="36" height="2.015" fill="#292F33"/><rect x="0" y="27" width="36" height="2.015" fill="#FFFFFF"/><rect x="0" y="29" width="36" height="2.015" fill="#292F33"/><rect x="0" y="5" width="14" height="10" fill="#E5323E"/><circle cx="7" cy="10" r="3.4" fill="#FFFFFF"/><path d="M5 7.9L6.1 8.1L6.6 7.4L7.6 8.3L9.1 8.2L9.8 9.3L8.9 10.4L8.2 10.8L8 12.1L7.1 13L6.5 11.3L5.7 10.7L5.6 9.7L4.5 9Z" fill="#2455A4"/><polygon points="1.8,6 1.997,6.528 2.561,6.553 2.12,6.904 2.27,7.447 1.8,7.136 1.33,7.447 1.48,6.904 1.039,6.553 1.603,6.528" fill="#FFCC33"/><polygon points="12.2,6 12.397,6.528 12.961,6.553 12.52,6.904 12.67,7.447 12.2,7.136 11.73,7.447 11.88,6.904 11.439,6.553 12.003,6.528" fill="#FFCC33"/><polygon points="1.8,12.4 1.997,12.928 2.561,12.953 2.12,13.304 2.27,13.847 1.8,13.536 1.33,13.847 1.48,13.304 1.039,12.953 1.603,12.928" fill="#FFCC33"/><polygon points="12.2,12.4 12.397,12.928 12.961,12.953 12.52,13.304 12.67,13.847 12.2,13.536 11.73,13.847 11.88,13.304 11.439,12.953 12.003,12.928" fill="#FFCC33"/></g>
</svg>
